<svg height="512" viewBox="0 0 128 128" width="512" xmlns="http://www.w3.org/2000/svg"><path d="m90.436 55.359v-3.7a14.093 14.093 0 0 0 -28.186 0v24.684a10.594 10.594 0 0 1 -21.187 0v-3.7a9.385 9.385 0 0 0 7.625-9.2v-18.943a1.75 1.75 0 0 0 -1.75-1.75h-1.88v-20.131a5.745 5.745 0 0 0 -11.489 0v20.131h-1.881a1.751 1.751 0 0 0 -1.75 1.75v18.94a9.386 9.386 0 0 0 7.625 9.2v3.7a14.094 14.094 0 0 0 28.187 0v-24.683a10.593 10.593 0 1 1 21.186 0v3.7a9.387 9.387 0 0 0 -7.625 9.2v18.943a1.751 1.751 0 0 0 1.75 1.75h1.881v20.131a5.745 5.745 0 0 0 11.489 0v-20.127h1.88a1.75 1.75 0 0 0 1.75-1.75v-18.94a9.386 9.386 0 0 0 -7.625-9.205zm-53.367-27.859h4.489v2.75h-4.489zm2.244-7.125a2.247 2.247 0 0 1 2.245 2.244v1.381h-4.489v-1.381a2.247 2.247 0 0 1 2.244-2.244zm-2.244 13.375h4.489v9h-4.489zm-3.631 29.69v-17.19h11.75v17.19a5.875 5.875 0 0 1 -11.75 0zm57.493 37.06h-4.489v-2.75h4.489zm-2.245 7.125a2.246 2.246 0 0 1 -2.244-2.244v-1.381h4.489v1.381a2.247 2.247 0 0 1 -2.245 2.248zm2.245-13.375h-4.489v-9h4.489zm3.63-12.5h-11.75v-17.186a5.875 5.875 0 0 1 11.75 0z"/></svg>