<svg id="Capa_1" enable-background="new 0 0 611.759 611.759" height="512" viewBox="0 0 611.759 611.759" width="512" xmlns="http://www.w3.org/2000/svg"><g><g id="Page-1_1_"><g id="music_instruments_export_1_" transform="translate(-536 -176)"><g id="drum_1_" clip-rule="evenodd" fill-rule="evenodd" transform="translate(536 176)"><path id="edge_2_" d="m566.776 278.89c0-144.089-116.807-260.896-260.896-260.896s-260.897 116.807-260.897 260.896 116.807 260.896 260.896 260.896 260.897-116.807 260.897-260.896zm-485.807 0c0-124.215 100.696-224.91 224.91-224.91s224.91 100.696 224.91 224.91-100.695 224.91-224.91 224.91-224.91-100.696-224.91-224.91z"/><path id="drumstick" d="m209.941 284.35-206.443 280.763c-5.887 8.006-4.169 19.268 3.837 25.155s19.268 4.169 25.155-3.837l206.447-280.768c1.303.143 2.627.216 3.968.216 19.874 0 35.986-16.111 35.986-35.986 0-19.874-16.111-35.986-35.986-35.986s-35.986 16.111-35.986 35.986c0 5.142 1.078 10.033 3.022 14.457z"/><path id="drumstick_1_" d="m372.822 305.663 206.447 280.767c5.887 8.006 17.149 9.724 25.155 3.837s9.724-17.149 3.837-25.155l-206.443-280.762c1.943-4.425 3.022-9.315 3.022-14.457 0-19.874-16.111-35.986-35.986-35.986s-35.986 16.111-35.986 35.986c0 19.874 16.111 35.986 35.986 35.986 1.341 0 2.665-.074 3.968-.216z"/></g></g></g></g></svg>