<svg height="512" viewBox="0 0 32 32" width="512" xmlns="http://www.w3.org/2000/svg"><g id="kick_pedal" data-name="kick pedal"><path d="m30.316 29.051-23.316-7.772v-2.463a2.982 2.982 0 0 0 0-5.632v-4.184a4 4 0 0 0 0-8h-5a1 1 0 0 0 -1 1v6a1 1 0 0 0 1 1h3v4.184a2.982 2.982 0 0 0 0 5.632v6.284a5.009 5.009 0 0 0 -4 4.9 1 1 0 0 0 1 1h28a1 1 0 0 0 .316-1.949zm-27.316-26.051h4a2 2 0 0 1 0 4h-4zm3 12a1 1 0 1 1 -1 1 1 1 0 0 1 1-1zm-1 12.171v1.829h-1.829a3.016 3.016 0 0 1 1.829-1.829zm2 1.829v-5.613l16.838 5.613z"/></g></svg>