<svg id="Capa_1" enable-background="new 0 0 512.014 512.014" height="512" viewBox="0 0 512.014 512.014" width="512" xmlns="http://www.w3.org/2000/svg"><g><path d="m90.999 332.435c33.633 0 60-19.761 60-45v-171.195l150-49.999v122.264c-8.809-3.766-18.939-6.07-30-6.07-33.633 0-60 19.761-60 45s26.367 45 60 45 60-19.761 60-45v-212c0-10.34-10.28-17.531-19.746-14.224l-180 60c-6.123 2.036-10.254 7.764-10.254 14.224v173.07c-8.809-3.766-18.939-6.07-30-6.07-33.633 0-60 19.761-60 45s26.367 45 60 45z"/><path d="m330.999 302.435c-33.633 0-60 19.761-60 45s26.367 45 60 45 60-19.761 60-45v-180.522c2.723 2.668 5.475 5.303 8.232 7.905 24.258 22.866 51.768 48.794 51.768 112.617 0 8.291 6.709 15 15 15s15-6.709 15-15c0-76.772-35.361-110.098-61.172-134.443-18.428-17.358-28.828-29.037-28.828-46.557 0-8.291-6.709-15-15-15s-15 6.709-15 15v202.07c-8.809-3.766-18.938-6.07-30-6.07z"/><path d="m21.708 420.853c99.258-49.644 184.721-21.738 227.582 0 45.732 22.866 89.004 30.762 126.943 30.762 58.154 0 104.77-18.53 127.562-30.088 7.383-3.75 10.342-12.773 6.592-20.156-3.779-7.412-12.715-10.327-20.186-6.592-33.574 17.051-123.9 51.021-228.725-1.377-79.131-40.151-172.064-39.946-253.188.615-7.412 3.706-10.4 12.715-6.709 20.127 3.723 7.427 12.688 10.386 20.129 6.709z"/><path d="m21.708 480.853c99.258-49.614 184.721-21.709 227.582 0 45.732 22.866 89.004 30.762 126.943 30.762 58.154 0 104.77-18.53 127.562-30.088 7.383-3.75 10.342-12.773 6.592-20.156-3.779-7.397-12.715-10.342-20.186-6.592-33.574 17.036-123.9 51.035-228.725-1.377-79.131-40.151-172.064-39.946-253.188.615-7.412 3.706-10.4 12.715-6.709 20.127 3.723 7.427 12.688 10.357 20.129 6.709z"/></g></svg>